<mxfile host="app.diagrams.net" modified="2022-07-01T03:30:20.875Z" agent="5.0 (X11)" etag="MVtmTRDSxYmcG4EaxsZW" version="20.0.4" type="github">
  <diagram id="C5RBs43oDa-KdzZeNtuy" name="Page-1">
    <mxGraphModel dx="878" dy="1104" grid="1" gridSize="10" guides="1" tooltips="1" connect="1" arrows="1" fold="1" page="1" pageScale="1" pageWidth="827" pageHeight="1169" math="0" shadow="0">
      <root>
        <mxCell id="WIyWlLk6GJQsqaUBKTNV-0" />
        <mxCell id="WIyWlLk6GJQsqaUBKTNV-1" parent="WIyWlLk6GJQsqaUBKTNV-0" />
        <mxCell id="zkfFHV4jXpPFQw0GAbJ--0" value="Passenger" style="swimlane;fontStyle=2;align=center;verticalAlign=top;childLayout=stackLayout;horizontal=1;startSize=26;horizontalStack=0;resizeParent=1;resizeLast=0;collapsible=1;marginBottom=0;rounded=0;shadow=0;strokeWidth=1;" parent="WIyWlLk6GJQsqaUBKTNV-1" vertex="1">
          <mxGeometry x="50" y="420" width="160" height="138" as="geometry">
            <mxRectangle x="230" y="140" width="160" height="26" as="alternateBounds" />
          </mxGeometry>
        </mxCell>
        <mxCell id="zkfFHV4jXpPFQw0GAbJ--1" value="Name" style="text;align=left;verticalAlign=top;spacingLeft=4;spacingRight=4;overflow=hidden;rotatable=0;points=[[0,0.5],[1,0.5]];portConstraint=eastwest;" parent="zkfFHV4jXpPFQw0GAbJ--0" vertex="1">
          <mxGeometry y="26" width="160" height="26" as="geometry" />
        </mxCell>
        <mxCell id="zkfFHV4jXpPFQw0GAbJ--2" value="Surname" style="text;align=left;verticalAlign=top;spacingLeft=4;spacingRight=4;overflow=hidden;rotatable=0;points=[[0,0.5],[1,0.5]];portConstraint=eastwest;rounded=0;shadow=0;html=0;" parent="zkfFHV4jXpPFQw0GAbJ--0" vertex="1">
          <mxGeometry y="52" width="160" height="26" as="geometry" />
        </mxCell>
        <mxCell id="zkfFHV4jXpPFQw0GAbJ--3" value="Email Address" style="text;align=left;verticalAlign=top;spacingLeft=4;spacingRight=4;overflow=hidden;rotatable=0;points=[[0,0.5],[1,0.5]];portConstraint=eastwest;rounded=0;shadow=0;html=0;" parent="zkfFHV4jXpPFQw0GAbJ--0" vertex="1">
          <mxGeometry y="78" width="160" height="26" as="geometry" />
        </mxCell>
        <mxCell id="zkfFHV4jXpPFQw0GAbJ--4" value="" style="line;html=1;strokeWidth=1;align=left;verticalAlign=middle;spacingTop=-1;spacingLeft=3;spacingRight=3;rotatable=0;labelPosition=right;points=[];portConstraint=eastwest;" parent="zkfFHV4jXpPFQw0GAbJ--0" vertex="1">
          <mxGeometry y="104" width="160" height="8" as="geometry" />
        </mxCell>
        <mxCell id="zkfFHV4jXpPFQw0GAbJ--17" value="Flight Booking" style="swimlane;fontStyle=0;align=center;verticalAlign=top;childLayout=stackLayout;horizontal=1;startSize=26;horizontalStack=0;resizeParent=1;resizeLast=0;collapsible=1;marginBottom=0;rounded=0;shadow=0;strokeWidth=1;" parent="WIyWlLk6GJQsqaUBKTNV-1" vertex="1">
          <mxGeometry x="380" y="439" width="160" height="100" as="geometry">
            <mxRectangle x="550" y="140" width="160" height="26" as="alternateBounds" />
          </mxGeometry>
        </mxCell>
        <mxCell id="zkfFHV4jXpPFQw0GAbJ--18" value="totalCost" style="text;align=left;verticalAlign=top;spacingLeft=4;spacingRight=4;overflow=hidden;rotatable=0;points=[[0,0.5],[1,0.5]];portConstraint=eastwest;" parent="zkfFHV4jXpPFQw0GAbJ--17" vertex="1">
          <mxGeometry y="26" width="160" height="26" as="geometry" />
        </mxCell>
        <mxCell id="zkfFHV4jXpPFQw0GAbJ--23" value="" style="line;html=1;strokeWidth=1;align=left;verticalAlign=middle;spacingTop=-1;spacingLeft=3;spacingRight=3;rotatable=0;labelPosition=right;points=[];portConstraint=eastwest;" parent="zkfFHV4jXpPFQw0GAbJ--17" vertex="1">
          <mxGeometry y="52" width="160" height="8" as="geometry" />
        </mxCell>
        <mxCell id="zkfFHV4jXpPFQw0GAbJ--25" value="calcTotalPayment" style="text;align=left;verticalAlign=top;spacingLeft=4;spacingRight=4;overflow=hidden;rotatable=0;points=[[0,0.5],[1,0.5]];portConstraint=eastwest;" parent="zkfFHV4jXpPFQw0GAbJ--17" vertex="1">
          <mxGeometry y="60" width="160" height="26" as="geometry" />
        </mxCell>
        <mxCell id="zkfFHV4jXpPFQw0GAbJ--26" value="" style="endArrow=none;shadow=0;strokeWidth=1;rounded=0;endFill=0;edgeStyle=elbowEdgeStyle;elbow=vertical;" parent="WIyWlLk6GJQsqaUBKTNV-1" source="zkfFHV4jXpPFQw0GAbJ--0" target="zkfFHV4jXpPFQw0GAbJ--17" edge="1">
          <mxGeometry x="0.5" y="41" relative="1" as="geometry">
            <mxPoint x="380" y="192" as="sourcePoint" />
            <mxPoint x="540" y="192" as="targetPoint" />
            <mxPoint x="-40" y="32" as="offset" />
          </mxGeometry>
        </mxCell>
        <mxCell id="zkfFHV4jXpPFQw0GAbJ--27" value="0..1" style="resizable=0;align=left;verticalAlign=bottom;labelBackgroundColor=none;fontSize=12;" parent="zkfFHV4jXpPFQw0GAbJ--26" connectable="0" vertex="1">
          <mxGeometry x="-1" relative="1" as="geometry">
            <mxPoint y="4" as="offset" />
          </mxGeometry>
        </mxCell>
        <mxCell id="zkfFHV4jXpPFQw0GAbJ--28" value="1" style="resizable=0;align=right;verticalAlign=bottom;labelBackgroundColor=none;fontSize=12;" parent="zkfFHV4jXpPFQw0GAbJ--26" connectable="0" vertex="1">
          <mxGeometry x="1" relative="1" as="geometry">
            <mxPoint x="-7" y="4" as="offset" />
          </mxGeometry>
        </mxCell>
        <mxCell id="84c1xyFoHX8TmR0kPjW6-32" style="edgeStyle=orthogonalEdgeStyle;rounded=0;orthogonalLoop=1;jettySize=auto;html=1;fontSize=13;endArrow=none;endFill=0;" edge="1" parent="WIyWlLk6GJQsqaUBKTNV-1" source="84c1xyFoHX8TmR0kPjW6-0" target="84c1xyFoHX8TmR0kPjW6-16">
          <mxGeometry relative="1" as="geometry" />
        </mxCell>
        <mxCell id="84c1xyFoHX8TmR0kPjW6-33" style="edgeStyle=orthogonalEdgeStyle;rounded=0;orthogonalLoop=1;jettySize=auto;html=1;fontSize=13;endArrow=none;endFill=0;" edge="1" parent="WIyWlLk6GJQsqaUBKTNV-1" source="84c1xyFoHX8TmR0kPjW6-0" target="84c1xyFoHX8TmR0kPjW6-10">
          <mxGeometry relative="1" as="geometry">
            <Array as="points">
              <mxPoint x="580" y="240" />
              <mxPoint x="580" y="240" />
            </Array>
          </mxGeometry>
        </mxCell>
        <mxCell id="84c1xyFoHX8TmR0kPjW6-0" value="Airline Company" style="swimlane;fontStyle=0;align=center;verticalAlign=top;childLayout=stackLayout;horizontal=1;startSize=26;horizontalStack=0;resizeParent=1;resizeLast=0;collapsible=1;marginBottom=0;rounded=0;shadow=0;strokeWidth=1;" vertex="1" parent="WIyWlLk6GJQsqaUBKTNV-1">
          <mxGeometry x="380" y="170" width="160" height="170" as="geometry">
            <mxRectangle x="550" y="140" width="160" height="26" as="alternateBounds" />
          </mxGeometry>
        </mxCell>
        <mxCell id="84c1xyFoHX8TmR0kPjW6-1" value="companyCode" style="text;align=left;verticalAlign=top;spacingLeft=4;spacingRight=4;overflow=hidden;rotatable=0;points=[[0,0.5],[1,0.5]];portConstraint=eastwest;" vertex="1" parent="84c1xyFoHX8TmR0kPjW6-0">
          <mxGeometry y="26" width="160" height="26" as="geometry" />
        </mxCell>
        <mxCell id="84c1xyFoHX8TmR0kPjW6-6" value="" style="line;html=1;strokeWidth=1;align=left;verticalAlign=middle;spacingTop=-1;spacingLeft=3;spacingRight=3;rotatable=0;labelPosition=right;points=[];portConstraint=eastwest;" vertex="1" parent="84c1xyFoHX8TmR0kPjW6-0">
          <mxGeometry y="52" width="160" height="8" as="geometry" />
        </mxCell>
        <mxCell id="84c1xyFoHX8TmR0kPjW6-7" value="checkAirplane" style="text;align=left;verticalAlign=top;spacingLeft=4;spacingRight=4;overflow=hidden;rotatable=0;points=[[0,0.5],[1,0.5]];portConstraint=eastwest;" vertex="1" parent="84c1xyFoHX8TmR0kPjW6-0">
          <mxGeometry y="60" width="160" height="26" as="geometry" />
        </mxCell>
        <mxCell id="84c1xyFoHX8TmR0kPjW6-8" value="checkAirport&#xa;" style="text;align=left;verticalAlign=top;spacingLeft=4;spacingRight=4;overflow=hidden;rotatable=0;points=[[0,0.5],[1,0.5]];portConstraint=eastwest;" vertex="1" parent="84c1xyFoHX8TmR0kPjW6-0">
          <mxGeometry y="86" width="160" height="26" as="geometry" />
        </mxCell>
        <mxCell id="84c1xyFoHX8TmR0kPjW6-30" value="checkAirplane" style="text;align=left;verticalAlign=top;spacingLeft=4;spacingRight=4;overflow=hidden;rotatable=0;points=[[0,0.5],[1,0.5]];portConstraint=eastwest;" vertex="1" parent="84c1xyFoHX8TmR0kPjW6-0">
          <mxGeometry y="112" width="160" height="26" as="geometry" />
        </mxCell>
        <mxCell id="84c1xyFoHX8TmR0kPjW6-47" value="checkSeat" style="text;align=left;verticalAlign=top;spacingLeft=4;spacingRight=4;overflow=hidden;rotatable=0;points=[[0,0.5],[1,0.5]];portConstraint=eastwest;" vertex="1" parent="84c1xyFoHX8TmR0kPjW6-0">
          <mxGeometry y="138" width="160" height="26" as="geometry" />
        </mxCell>
        <mxCell id="84c1xyFoHX8TmR0kPjW6-10" value="Airplane" style="swimlane;fontStyle=0;align=center;verticalAlign=top;childLayout=stackLayout;horizontal=1;startSize=26;horizontalStack=0;resizeParent=1;resizeLast=0;collapsible=1;marginBottom=0;rounded=0;shadow=0;strokeWidth=1;" vertex="1" parent="WIyWlLk6GJQsqaUBKTNV-1">
          <mxGeometry x="690" y="160" width="160" height="160" as="geometry">
            <mxRectangle x="550" y="140" width="160" height="26" as="alternateBounds" />
          </mxGeometry>
        </mxCell>
        <mxCell id="84c1xyFoHX8TmR0kPjW6-11" value="modelNumber&#xa;registrationNUmber&#xa;capacityOfPassengers&#xa;numbeOffBussinessClass&#xa;numberOfEconomyClass&#xa;numberOfFirstClass&#xa;" style="text;align=left;verticalAlign=top;spacingLeft=4;spacingRight=4;overflow=hidden;rotatable=0;points=[[0,0.5],[1,0.5]];portConstraint=eastwest;perimeterSpacing=0;spacingBottom=0;fontSize=13;spacingTop=0;spacing=2;" vertex="1" parent="84c1xyFoHX8TmR0kPjW6-10">
          <mxGeometry y="26" width="160" height="114" as="geometry" />
        </mxCell>
        <mxCell id="84c1xyFoHX8TmR0kPjW6-12" value="" style="line;html=1;strokeWidth=1;align=left;verticalAlign=middle;spacingTop=-1;spacingLeft=3;spacingRight=3;rotatable=0;labelPosition=right;points=[];portConstraint=eastwest;" vertex="1" parent="84c1xyFoHX8TmR0kPjW6-10">
          <mxGeometry y="140" width="160" height="8" as="geometry" />
        </mxCell>
        <mxCell id="84c1xyFoHX8TmR0kPjW6-15" value="Airport" style="swimlane;fontStyle=0;align=center;verticalAlign=top;childLayout=stackLayout;horizontal=1;startSize=26;horizontalStack=0;resizeParent=1;resizeLast=0;collapsible=1;marginBottom=0;rounded=0;shadow=0;strokeWidth=1;" vertex="1" parent="WIyWlLk6GJQsqaUBKTNV-1">
          <mxGeometry x="690" y="40" width="160" height="90" as="geometry">
            <mxRectangle x="550" y="140" width="160" height="26" as="alternateBounds" />
          </mxGeometry>
        </mxCell>
        <mxCell id="84c1xyFoHX8TmR0kPjW6-16" value="airportCode&#xa;locationInfo&#xa;" style="text;align=left;verticalAlign=top;spacingLeft=4;spacingRight=4;overflow=hidden;rotatable=0;points=[[0,0.5],[1,0.5]];portConstraint=eastwest;fontSize=13;" vertex="1" parent="84c1xyFoHX8TmR0kPjW6-15">
          <mxGeometry y="26" width="160" height="44" as="geometry" />
        </mxCell>
        <mxCell id="84c1xyFoHX8TmR0kPjW6-17" value="" style="line;html=1;strokeWidth=1;align=left;verticalAlign=middle;spacingTop=-1;spacingLeft=3;spacingRight=3;rotatable=0;labelPosition=right;points=[];portConstraint=eastwest;" vertex="1" parent="84c1xyFoHX8TmR0kPjW6-15">
          <mxGeometry y="70" width="160" height="8" as="geometry" />
        </mxCell>
        <mxCell id="84c1xyFoHX8TmR0kPjW6-44" style="edgeStyle=orthogonalEdgeStyle;rounded=0;orthogonalLoop=1;jettySize=auto;html=1;fontSize=13;endArrow=none;endFill=0;" edge="1" parent="WIyWlLk6GJQsqaUBKTNV-1" source="84c1xyFoHX8TmR0kPjW6-25" target="zkfFHV4jXpPFQw0GAbJ--17">
          <mxGeometry relative="1" as="geometry">
            <Array as="points">
              <mxPoint x="460" y="580" />
            </Array>
          </mxGeometry>
        </mxCell>
        <mxCell id="84c1xyFoHX8TmR0kPjW6-25" value="Flight" style="swimlane;fontStyle=0;align=center;verticalAlign=top;childLayout=stackLayout;horizontal=1;startSize=26;horizontalStack=0;resizeParent=1;resizeLast=0;collapsible=1;marginBottom=0;rounded=0;shadow=0;strokeWidth=1;" vertex="1" parent="WIyWlLk6GJQsqaUBKTNV-1">
          <mxGeometry x="690" y="400" width="160" height="250" as="geometry">
            <mxRectangle x="550" y="140" width="160" height="26" as="alternateBounds" />
          </mxGeometry>
        </mxCell>
        <mxCell id="84c1xyFoHX8TmR0kPjW6-26" value="flightCode&#xa;departureAirport&#xa;departureGate&#xa;departuredate&#xa;departureTime&#xa;destinationAirport&#xa;arrivalGate&#xa;arrivalDate&#xa;arrivalTime&#xa;" style="text;align=left;verticalAlign=top;spacingLeft=4;spacingRight=4;overflow=hidden;rotatable=0;points=[[0,0.5],[1,0.5]];portConstraint=eastwest;fontSize=13;" vertex="1" parent="84c1xyFoHX8TmR0kPjW6-25">
          <mxGeometry y="26" width="160" height="154" as="geometry" />
        </mxCell>
        <mxCell id="84c1xyFoHX8TmR0kPjW6-27" value="" style="line;html=1;strokeWidth=1;align=left;verticalAlign=middle;spacingTop=-1;spacingLeft=3;spacingRight=3;rotatable=0;labelPosition=right;points=[];portConstraint=eastwest;" vertex="1" parent="84c1xyFoHX8TmR0kPjW6-25">
          <mxGeometry y="180" width="160" height="8" as="geometry" />
        </mxCell>
        <mxCell id="84c1xyFoHX8TmR0kPjW6-49" value="checkAvailableSeat" style="text;align=left;verticalAlign=top;spacingLeft=4;spacingRight=4;overflow=hidden;rotatable=0;points=[[0,0.5],[1,0.5]];portConstraint=eastwest;" vertex="1" parent="84c1xyFoHX8TmR0kPjW6-25">
          <mxGeometry y="188" width="160" height="26" as="geometry" />
        </mxCell>
        <mxCell id="84c1xyFoHX8TmR0kPjW6-50" value="calcCostOfFlight" style="text;align=left;verticalAlign=top;spacingLeft=4;spacingRight=4;overflow=hidden;rotatable=0;points=[[0,0.5],[1,0.5]];portConstraint=eastwest;" vertex="1" parent="84c1xyFoHX8TmR0kPjW6-25">
          <mxGeometry y="214" width="160" height="26" as="geometry" />
        </mxCell>
        <mxCell id="84c1xyFoHX8TmR0kPjW6-34" style="edgeStyle=orthogonalEdgeStyle;rounded=0;orthogonalLoop=1;jettySize=auto;html=1;fontSize=13;endArrow=classic;endFill=1;" edge="1" parent="WIyWlLk6GJQsqaUBKTNV-1" source="84c1xyFoHX8TmR0kPjW6-30" target="84c1xyFoHX8TmR0kPjW6-26">
          <mxGeometry relative="1" as="geometry" />
        </mxCell>
        <mxCell id="84c1xyFoHX8TmR0kPjW6-35" value="1..." style="resizable=0;align=left;verticalAlign=bottom;labelBackgroundColor=none;fontSize=12;" connectable="0" vertex="1" parent="WIyWlLk6GJQsqaUBKTNV-1">
          <mxGeometry x="660" y="85" as="geometry" />
        </mxCell>
        <mxCell id="84c1xyFoHX8TmR0kPjW6-38" value="1" style="resizable=0;align=left;verticalAlign=bottom;labelBackgroundColor=none;fontSize=12;" connectable="0" vertex="1" parent="WIyWlLk6GJQsqaUBKTNV-1">
          <mxGeometry x="446" y="165" as="geometry" />
        </mxCell>
        <mxCell id="84c1xyFoHX8TmR0kPjW6-40" value="1..." style="resizable=0;align=left;verticalAlign=bottom;labelBackgroundColor=none;fontSize=12;" connectable="0" vertex="1" parent="WIyWlLk6GJQsqaUBKTNV-1">
          <mxGeometry x="661" y="238" as="geometry" />
        </mxCell>
        <mxCell id="84c1xyFoHX8TmR0kPjW6-41" value="1" style="resizable=0;align=left;verticalAlign=bottom;labelBackgroundColor=none;fontSize=12;" connectable="0" vertex="1" parent="WIyWlLk6GJQsqaUBKTNV-1">
          <mxGeometry x="547" y="236" as="geometry" />
        </mxCell>
        <mxCell id="84c1xyFoHX8TmR0kPjW6-42" value="1" style="resizable=0;align=left;verticalAlign=bottom;labelBackgroundColor=none;fontSize=12;" connectable="0" vertex="1" parent="WIyWlLk6GJQsqaUBKTNV-1">
          <mxGeometry x="547" y="295" as="geometry" />
        </mxCell>
        <mxCell id="84c1xyFoHX8TmR0kPjW6-43" value="0..." style="resizable=0;align=left;verticalAlign=bottom;labelBackgroundColor=none;fontSize=12;" connectable="0" vertex="1" parent="WIyWlLk6GJQsqaUBKTNV-1">
          <mxGeometry x="661" y="499" as="geometry" />
        </mxCell>
        <mxCell id="84c1xyFoHX8TmR0kPjW6-45" value="1" style="resizable=0;align=left;verticalAlign=bottom;labelBackgroundColor=none;fontSize=12;" connectable="0" vertex="1" parent="WIyWlLk6GJQsqaUBKTNV-1">
          <mxGeometry x="547" y="548" as="geometry">
            <mxPoint x="-71" y="10" as="offset" />
          </mxGeometry>
        </mxCell>
        <mxCell id="84c1xyFoHX8TmR0kPjW6-46" value="1..." style="resizable=0;align=left;verticalAlign=bottom;labelBackgroundColor=none;fontSize=12;" connectable="0" vertex="1" parent="WIyWlLk6GJQsqaUBKTNV-1">
          <mxGeometry x="661" y="570" as="geometry" />
        </mxCell>
      </root>
    </mxGraphModel>
  </diagram>
</mxfile>
